<svg xmlns="http://www.w3.org/2000/svg" xmlns:xlink="http://www.w3.org/1999/xlink" version="1.1" x="0px" y="0px" viewBox="0 0 100 125" style="enable-background:new 0 0 100 100;" xml:space="preserve"><path d="M63.2,27.5c-1.9,0-3.8,0.6-5.3,1.6L46.3,17.4c1-1.5,1.6-3.3,1.6-5.3c0-5.3-4.3-9.7-9.7-9.7s-9.7,4.3-9.7,9.7  c0,1.9,0.6,3.8,1.6,5.3L18.4,29c-1.5-1-3.3-1.6-5.3-1.6c-5.3,0-9.7,4.3-9.7,9.7s4.3,9.7,9.7,9.7s9.7-4.3,9.7-9.7  c0-1.9-0.6-3.8-1.6-5.3l11.6-11.6c1.5,1,3.3,1.6,5.3,1.6c1.9,0,3.8-0.6,5.3-1.6L55,31.8c-1,1.5-1.6,3.3-1.6,5.3  c0,5.3,4.3,9.7,9.7,9.7c5.3,0,9.7-4.3,9.7-9.7S68.5,27.5,63.2,27.5z"/><path d="M88.2,52.5c-5.3,0-9.7,4.3-9.7,9.7c0,1.9,0.6,3.8,1.6,5.3L68.4,79c-1.5-1-3.3-1.6-5.3-1.6c-1.9,0-3.8,0.6-5.3,1.6L46.3,67.4  c1-1.5,1.6-3.3,1.6-5.3c0-5.3-4.3-9.7-9.7-9.7s-9.7,4.3-9.7,9.7c0,5.3,4.3,9.7,9.7,9.7c1.9,0,3.8-0.6,5.3-1.6l11.6,11.6  c-1,1.5-1.6,3.3-1.6,5.3c0,5.3,4.3,9.7,9.7,9.7c5.3,0,9.7-4.3,9.7-9.7c0-1.9-0.6-3.8-1.6-5.3l11.6-11.6c1.5,1,3.3,1.6,5.3,1.6  c5.3,0,9.7-4.3,9.7-9.7C97.8,56.8,93.5,52.5,88.2,52.5z"/><path d="M38.2,77.5c-1.9,0-3.8,0.6-5.3,1.6L21.3,67.4c1-1.5,1.6-3.3,1.6-5.3c0-1.9-0.6-3.8-1.6-5.3l11.6-11.6c1.5,1,3.3,1.6,5.3,1.6  c5.3,0,9.7-4.3,9.7-9.7s-4.3-9.7-9.7-9.7s-9.7,4.3-9.7,9.7c0,1.9,0.6,3.8,1.6,5.3L18.4,54c-1.5-1-3.3-1.6-5.3-1.6  c-5.3,0-9.7,4.3-9.7,9.7c0,5.3,4.3,9.7,9.7,9.7c1.9,0,3.8-0.6,5.3-1.6L30,81.8c-1,1.5-1.6,3.3-1.6,5.3c0,5.3,4.3,9.7,9.7,9.7  s9.7-4.3,9.7-9.7C47.8,81.8,43.5,77.5,38.2,77.5z"/><path d="M88.2,27.5c-1.9,0-3.8,0.6-5.3,1.6L71.3,17.4c1-1.5,1.6-3.3,1.6-5.3c0-5.3-4.3-9.7-9.7-9.7c-5.3,0-9.7,4.3-9.7,9.7  s4.3,9.7,9.7,9.7c1.9,0,3.8-0.6,5.3-1.6l11.6,11.6c-1,1.5-1.6,3.3-1.6,5.3c0,1.9,0.6,3.8,1.6,5.3L68.4,54c-1.5-1-3.3-1.6-5.3-1.6  c-5.3,0-9.7,4.3-9.7,9.7c0,5.3,4.3,9.7,9.7,9.7c5.3,0,9.7-4.3,9.7-9.7c0-1.9-0.6-3.8-1.6-5.3l11.6-11.6c1.5,1,3.3,1.6,5.3,1.6  c5.3,0,9.7-4.3,9.7-9.7S93.5,27.5,88.2,27.5z"/><text x="0" y="115" fill="#000000" font-size="5px" font-weight="bold" font-family="'Helvetica Neue', Helvetica, Arial-Unicode, Arial, Sans-serif">Created by IconLion</text><text x="0" y="120" fill="#000000" font-size="5px" font-weight="bold" font-family="'Helvetica Neue', Helvetica, Arial-Unicode, Arial, Sans-serif">from the Noun Project</text></svg>