<svg xmlns="http://www.w3.org/2000/svg" viewBox="0 0 32 40" x="0px" y="0px"><title>Judo</title><g data-name="Layer 2"><path d="M18.81152,7.416A.99958.99958,0,0,0,18,7H14a1.00036,1.00036,0,0,0-.95605.70605l-2.417,7.85254a16.30443,16.30443,0,0,0,.44434,10.8125A1,1,0,0,0,12,27h.0293a1.00206,1.00206,0,0,0,.91992-.68359l5.999-18A.99745.99745,0,0,0,18.81152,7.416Z" fill="#ffffff"/><path d="M29,4a.99942.99942,0,0,0-1,1,3.00328,3.00328,0,0,1-3,3H19.99371a.98377.98377,0,0,1-.04547.31641L18.054,14H25.04A4.965,4.965,0,0,0,30,9.04V5A.99942.99942,0,0,0,29,4Z" fill="#ffffff"/><path d="M11.95349,8H7A3.00328,3.00328,0,0,1,4,5,1,1,0,0,0,2,5V9a4.98558,4.98558,0,0,0,4.96,5h3.14673Z" fill="#ffffff"/><path d="M22.85547,16.043,22.36823,15H17.72076l-.70312,2.10962,1.162,2.96851a7.38643,7.38643,0,0,1,.35938,4.12891l-.51953,2.59668A.99992.99992,0,0,0,19.55469,27.832,9.34072,9.34072,0,0,0,22.85547,16.043Z" fill="#ffffff"/></g><text x="0" y="47" fill="#ffffff" font-size="5px" font-weight="bold" font-family="'Helvetica Neue', Helvetica, Arial-Unicode, Arial, Sans-serif">Created by Numeralia Vita Zein</text><text x="0" y="52" fill="#ffffff" font-size="5px" font-weight="bold" font-family="'Helvetica Neue', Helvetica, Arial-Unicode, Arial, Sans-serif">from the Noun Project</text></svg>